<svg width="426" height="107" viewBox="0 0 426 107" fill="none" xmlns="http://www.w3.org/2000/svg">
<path fill-rule="evenodd" clip-rule="evenodd" d="M18.8957 0H87.2189C97.6547 0 106.115 8.45989 106.115 18.8957V87.2188C106.115 97.6546 97.6547 106.114 87.2189 106.114H18.8957C8.4599 106.114 0 97.6546 0 87.2188V18.8957C0 8.45989 8.4599 0 18.8957 0ZM74.9055 28.4238H50.1583C48.62 28.4238 47.373 29.6708 47.373 31.2091V35.113C47.373 36.6513 48.62 37.8984 50.1583 37.8984H74.9055C76.4438 37.8984 77.6908 36.6513 77.6908 35.113V31.2091C77.6908 29.6708 76.4438 28.4238 74.9055 28.4238ZM50.1583 48.3222H70.4846C72.0229 48.3222 73.2699 49.5692 73.2699 51.1075V55.0114C73.2699 56.5497 72.0229 57.7968 70.4846 57.7968H50.1583C48.62 57.7968 47.373 56.5497 47.373 55.0114V51.1075C47.373 49.5692 48.62 48.3222 50.1583 48.3222ZM77.6908 74.9054V71.0015C77.6908 69.464 76.443 68.2161 74.9055 68.2161H45.1403C41.1383 68.2161 37.8984 64.9762 37.8984 60.9743V31.2091C37.8984 29.6716 36.6505 28.4238 35.113 28.4238H31.2091C29.6716 28.4238 28.4238 29.6716 28.4238 31.2091V66.7811C28.7981 72.637 33.4775 77.3164 39.3334 77.6907H74.9055C76.443 77.6907 77.6908 76.4429 77.6908 74.9054Z" fill="#316BFF"/>
<path d="M50.1583 28.4238H74.9055C76.4438 28.4238 77.6908 29.6708 77.6908 31.2091V35.113C77.6908 36.6513 76.4438 37.8984 74.9055 37.8984H50.1583C48.62 37.8984 47.373 36.6513 47.373 35.113V31.2091C47.373 29.6708 48.62 28.4238 50.1583 28.4238Z" fill="white"/>
<path d="M50.1583 48.3222H70.4846C72.0229 48.3222 73.2699 49.5692 73.2699 51.1075V55.0114C73.2699 56.5497 72.0229 57.7968 70.4846 57.7968H50.1583C48.62 57.7968 47.373 56.5497 47.373 55.0114V51.1075C47.373 49.5692 48.62 48.3222 50.1583 48.3222Z" fill="white"/>
<path d="M77.6908 71.0015V74.9054C77.6908 76.4429 76.443 77.6907 74.9055 77.6907H39.3334C33.4775 77.3164 28.7981 72.637 28.4238 66.7811V31.2091C28.4238 29.6716 29.6716 28.4238 31.2091 28.4238H35.113C36.6505 28.4238 37.8984 29.6716 37.8984 31.2091V60.9743C37.8984 64.9762 41.1383 68.2161 45.1403 68.2161H74.9055C76.443 68.2161 77.6908 69.464 77.6908 71.0015Z" fill="white"/>
<path d="M331.803 18.2224H326.638C325.1 18.2224 323.853 19.4694 323.853 21.0077V26.1728C323.853 27.7111 325.1 28.9582 326.638 28.9582H331.803C333.341 28.9582 334.588 27.7111 334.588 26.1728V21.0077C334.588 19.4694 333.341 18.2224 331.803 18.2224Z" fill="#316BFF"/>
<path d="M144.825 20.3615V84.2593C144.825 85.7968 143.577 87.0446 142.039 87.0446H137.373C135.836 87.0446 134.588 85.7968 134.588 84.2593V20.3615C134.588 18.824 135.836 17.5762 137.373 17.5762H142.039C143.577 17.5762 144.825 18.824 144.825 20.3615Z" fill="white"/>
<path d="M164.799 66.3752C165.695 73.831 171.853 78.6975 180.798 78.6975C184.942 78.6975 189.983 77.3828 193.272 74.9897C194.372 74.1875 195.883 74.2811 196.864 75.2303L199.578 77.8641C200.767 79.0184 200.705 80.9614 199.422 82.0043C194.314 86.1577 187.122 88.2389 180.597 88.2389C164.496 88.2389 154.161 78.0023 154.161 62.3019C154.161 46.6016 164.598 36.7615 179.902 36.7615C195.206 36.7615 205.447 45.5409 204.729 63.7057C204.671 65.1987 203.437 66.3797 201.944 66.3797H164.794L164.799 66.3752ZM194.711 57.7295C194.114 49.9796 188.45 45.9019 180.201 45.9019C172.745 45.9019 166.586 49.9752 164.995 57.7295H194.711Z" fill="white"/>
<path d="M246.487 84.2593V58.505C246.487 52.0474 241.26 46.6684 234.802 46.7976C227.694 46.9358 223.228 52.9432 223.228 60.1138V84.2593C223.228 85.7968 221.981 87.0446 220.443 87.0446H215.777C214.24 87.0446 212.992 85.7968 212.992 84.2593V40.7368C212.992 39.1993 214.24 37.9514 215.777 37.9514H220.029C221.455 37.9514 222.649 39.0255 222.801 40.4426L223.233 44.5114C226.014 39.1458 231.78 37.1582 236.946 37.1582C243.207 37.1582 249.567 39.743 252.352 46.9982C256.327 39.743 262.49 37.2607 269.149 37.2607C282.665 37.2607 289.92 45.8083 289.92 59.9221V84.2682C289.92 85.8057 288.673 87.0535 287.135 87.0535H282.371C280.834 87.0535 279.586 85.8057 279.586 84.2682V57.9613C279.586 51.9494 274.79 46.9135 268.779 46.9046C261.51 46.8912 256.826 52.8585 256.826 60.1227V84.2682C256.826 85.8057 255.578 87.0535 254.041 87.0535H249.277C247.739 87.0535 246.491 85.8057 246.491 84.2682L246.487 84.2593Z" fill="white"/>
<path d="M311.78 20.3615V84.2593C311.78 85.7968 310.532 87.0446 308.994 87.0446H304.328C302.791 87.0446 301.543 85.7968 301.543 84.2593V20.3615C301.543 18.824 302.791 17.5762 304.328 17.5762H308.994C310.532 17.5762 311.78 18.824 311.78 20.3615Z" fill="#316BFF"/>
<path d="M324.102 40.6343V84.2593C324.102 85.7968 325.35 87.0446 326.887 87.0446H331.553C333.091 87.0446 334.339 85.7968 334.339 84.2593V40.6343C334.339 39.0968 333.091 37.8489 331.553 37.8489H326.887C325.35 37.8489 324.102 39.0968 324.102 40.6343Z" fill="#316BFF"/>
<path d="M379.301 48.0455C378.374 49.1329 376.783 49.3067 375.606 48.4911C372.286 46.1916 368.708 45.5008 364.652 45.5008C358.391 45.4028 354.215 47.4884 354.215 51.3656C354.313 55.4389 358.587 57.0298 364.848 57.627C373.89 58.4203 385.718 60.4079 385.62 73.0333C385.522 82.1781 377.469 88.5375 364.75 88.5375C357.49 88.5375 350.226 87.0446 344.103 81.26C343.087 80.2974 342.962 78.7198 343.795 77.5923L345.886 74.7624C346.821 73.4967 348.64 73.2383 349.856 74.2365C354.273 77.8641 360.013 79.4061 364.951 79.4908C369.822 79.4908 375.285 77.7037 375.388 73.1313C375.486 68.7594 371.315 67.0704 364.059 66.3707C354.816 65.475 344.183 62.4936 344.085 51.6642C344.085 40.8304 355.316 36.7571 364.46 36.7571C370.936 36.7571 376.168 37.996 380.972 41.4186C382.304 42.3679 382.541 44.2574 381.48 45.5008L379.31 48.0455H379.301Z" fill="#316BFF"/>
<path d="M409.668 27.0329V38.1475H421.192C422.73 38.1475 423.977 39.3954 423.977 40.9329V44.2084C423.977 45.7459 422.73 46.9937 421.192 46.9937H409.565V70.3504C409.565 75.52 411.851 78.3989 416.62 78.3989C417.814 78.3989 419.111 78.1494 420.39 77.7349C421.816 77.2714 423.349 78.0825 423.83 79.5041L424.998 82.9312C425.493 84.3885 424.717 85.9839 423.256 86.4697C420.876 87.263 418.581 87.6418 416.018 87.6418C405.385 87.9404 399.324 81.8795 399.324 70.3504V46.9937H392.666C391.128 46.9937 389.88 45.7459 389.88 44.2084V40.9329C389.88 39.3954 391.128 38.1475 392.666 38.1475H399.324V27.5365C399.324 26.1104 400.398 24.9161 401.815 24.7646L406.579 24.261C408.224 24.0872 409.659 25.3751 409.659 27.0329H409.668Z" fill="#316BFF"/>
</svg>
